<?xml version="1.0" encoding="UTF-8"?>
<svg width="20px" height="24px" viewBox="0 0 20 24" version="1.1" xmlns="http://www.w3.org/2000/svg" xmlns:xlink="http://www.w3.org/1999/xlink">
    <!-- Generator: Sketch 59.1 (86144) - https://sketch.com -->
    <title>Group 12</title>
    <desc>Created with Sketch.</desc>
    <defs>
        <circle id="path-1" cx="16" cy="16" r="16"></circle>
    </defs>
    <g id="Interfaces" stroke="none" stroke-width="1" fill="none" fill-rule="evenodd">
        <g id="10-AGENDA" transform="translate(-41.000000, -820.000000)">
            <g id="Group-2" transform="translate(0.000000, 804.000000)">
                <g id="Group-3" transform="translate(16.000000, 12.000000)">
                    <g id="Group-12" transform="translate(19.000000, 0.000000)">
                        <mask id="mask-2" fill="white">
                            <use xlink:href="#path-1"></use>
                        </mask>
                        <g id="Oval" opacity="0.404831659"></g>
                        <g id="money-bag-with-dollar-symbol" mask="url(#mask-2)" fill-rule="nonzero">
                            <g transform="translate(6.000000, 4.000000)">
                                <path d="M11.6196581,15.9079867 C11.5309684,15.8119798 11.4187512,15.7401679 11.3027896,15.6803431 C11.0503008,15.5501979 10.7741726,15.4712601 10.5000004,15.4000006 L10.5000004,17.5000007 C10.9450133,17.4502848 11.4559148,17.2906415 11.6895703,16.879988 L11.6895703,16.879988 C11.8011169,16.6838312 11.8233033,16.4428195 11.7778687,16.2244561 C11.7532234,16.1061323 11.7023121,15.9975306 11.6196581,15.9079867 Z" id="Path" fill="#000000"></path>
                                <path d="M11.6479005,16.8536507 C11.6495005,16.8509507 11.6504005,16.8492507 11.6521005,16.8463507 L11.6521005,16.8463507 C11.6507005,16.8487507 11.6493005,16.8511507 11.6479005,16.8536507 Z" id="Path" fill="#000000"></path>
                                <path d="M8.34857698,12.4206226 C8.26936885,12.5310325 8.21966849,12.6564656 8.20595605,12.789797 C8.19224361,12.9234046 8.19993878,13.0720354 8.25311064,13.1977999 C8.30373673,13.3176546 8.40979116,13.4061372 8.51925924,13.4773872 C8.6420926,13.557143 8.77719195,13.6194453 8.9147792,13.6722476 C9.03020669,13.7165994 9.16004092,13.759018 9.30000037,13.8000005 L9.30000037,11.9000005 C8.94642774,11.9720237 8.56010726,12.1257912 8.34857698,12.4206226 Z" id="Path" fill="#000000"></path>
                                <path d="M11.6578505,16.8360007 C11.6528505,16.8449007 11.6474505,16.8542007 11.6421505,16.8640007 L11.6421505,16.8640007 C11.6483505,16.8526007 11.6532505,16.8442007 11.6578505,16.8360007 Z" id="Path" fill="#000000"></path>
                                <path d="M11.6494748,16.8509385 C11.6507748,16.8485385 11.6509748,16.8483385 11.6494748,16.8509385 L11.6494748,16.8509385 Z" id="Path" fill="#000000"></path>
                                <path d="M11.2068098,5.20024742 C13.0318874,3.67293991 14.2513907,0.232139586 13.5009011,0.081647102 C12.5037106,-0.118390927 10.3382764,0.758750806 9.29163293,0.913292415 C7.80713795,1.09184759 6.19031653,-0.690329853 5.28277389,0.303055514 C4.5448733,1.1107435 5.81179741,4.04804637 7.79392789,5.32768239 C1.88033578,8.22303181 -6.43161671,22.7579289 8.06902464,23.8125573 C28.133135,25.2718732 18.0863173,8.02170031 11.2068098,5.20024742 Z M12.9299328,16.663152 C12.8682294,17.2298045 12.5667689,17.7422438 12.116159,18.0901312 C11.6403709,18.4574768 11.0436035,18.6283274 10.4506749,18.6761858 L10.4506749,19.3022818 C10.4506749,19.4698143 10.3772292,19.6318356 10.2513384,19.7427366 C10.0783091,19.8952536 9.82404365,19.9328768 9.61403751,19.8364851 C9.40668468,19.7414431 9.27046296,19.5295951 9.27046296,19.3022818 L9.27046296,18.6179796 C9.16879063,18.5987463 9.0678522,18.5758575 8.96809929,18.5485821 C8.41395407,18.3969086 7.89994712,18.1012663 7.52447647,17.6638483 C7.33744681,17.4458141 7.18496655,17.1984238 7.07951186,16.9313503 C7.05196267,16.8615591 7.0274055,16.7904745 7.00589681,16.7186025 C6.98642043,16.6535353 6.96632307,16.5873996 6.95937932,16.5195767 C6.94769349,16.4058076 6.97033125,16.2897327 7.02356668,16.1883921 C7.1329731,15.9799183 7.36352822,15.8540018 7.59893832,15.8749223 C7.83062251,15.8953929 8.03368489,16.0555583 8.10662251,16.2755607 C8.12909091,16.3433273 8.14433329,16.4127811 8.1695679,16.4798166 C8.19457669,16.5464022 8.22477919,16.611132 8.26028829,16.6727686 C8.33040324,16.7941299 8.41824452,16.9060432 8.51940876,17.003166 C8.72794711,17.2033165 8.99355971,17.3333947 9.27046296,17.4107779 L9.27046296,15.084668 C8.72901972,14.9450294 8.17013243,14.7646747 7.72302259,14.418362 C7.50573399,14.2499859 7.32135763,14.0407811 7.20060411,13.7931658 C7.07318909,13.5318285 7.02040529,13.2406852 7.01826007,12.9515102 C7.01605839,12.6578924 7.07206003,12.3668615 7.19501523,12.099338 C7.31017989,11.8488547 7.47598312,11.6239595 7.67927132,11.437531 C8.11396143,11.0389734 8.6913654,10.8166652 9.27051941,10.7350078 L9.27051941,10.6838314 L9.27051941,10.085067 C9.27051941,9.91759068 9.34396511,9.7555132 9.46985588,9.64461216 C9.64294158,9.49215135 9.89709417,9.45447199 10.1071568,9.55086367 C10.3144531,9.64596187 10.4507313,9.85775361 10.4507313,10.085067 L10.4507313,10.6838314 L10.4507313,10.7314648 C10.5279029,10.7411377 10.6048487,10.7527227 10.6813993,10.7665573 C11.2501095,10.8690789 11.8063435,11.1030283 12.2222347,11.5114838 C12.4192566,11.704942 12.5805435,11.9354609 12.6939581,12.1868441 C12.7256284,12.2569727 12.753347,12.3287322 12.7773396,12.4018977 C12.7996951,12.4701142 12.8221635,12.5403553 12.8328332,12.6115524 C12.849882,12.7252091 12.8324944,12.8426337 12.7836624,12.9466175 C12.6836272,13.1596464 12.4592819,13.2952921 12.2232508,13.2852256 C11.9913408,13.275159 11.7812218,13.1247227 11.698179,12.9087694 C11.6734525,12.8445458 11.6610892,12.7765542 11.6358546,12.7124993 C11.6103942,12.6476571 11.5774255,12.5857954 11.5394325,12.5273643 C11.4655916,12.4137639 11.3699033,12.3163599 11.2606663,12.2361085 C11.0241271,12.0621086 10.7372316,11.9714532 10.4505619,11.9207829 L10.4505619,14.1467894 C10.7912574,14.2280531 11.1322351,14.316684 11.4586478,14.4449063 C11.9519929,14.6387019 12.4194824,14.9358627 12.6887644,15.4044364 C12.646989,15.3314397 12.6063427,15.2602988 12.6901758,15.4068547 C12.7724846,15.5508236 12.7331931,15.4822134 12.6918694,15.4100602 C12.9061095,15.786179 12.9765067,16.235913 12.9299328,16.663152 Z" id="Shape" fill="#235EB2"></path>
                                <path d="M11.6578005,16.8361007 C11.6517005,16.8470007 11.6464005,16.8566007 11.6422005,16.8639007 C11.6458005,16.8576007 11.6512005,16.8481007 11.6578005,16.8361007 Z" id="Path" fill="#000000"></path>
                            </g>
                        </g>
                    </g>
                </g>
            </g>
        </g>
    </g>
</svg>