<svg width="64" height="64" viewBox="0 0 64 64" fill="none" xmlns="http://www.w3.org/2000/svg">
<g id="Group 12">
<mask id="mask0" mask-type="alpha" maskUnits="userSpaceOnUse" x="0" y="0" width="64" height="64">
<path id="Oval" fill-rule="evenodd" clip-rule="evenodd" d="M32 64C49.6731 64 64 49.6731 64 32C64 14.3269 49.6731 0 32 0C14.3269 0 0 14.3269 0 32C0 49.6731 14.3269 64 32 64Z" fill="white"/>
</mask>
<g mask="url(#mask0)">
<g id="money-bag-with-dollar-symbol">
<path id="Path" d="M35.2393 39.8158C35.0619 39.6238 34.8375 39.4801 34.6056 39.3605C34.1006 39.1002 33.5483 38.9423 33 38.7998V42.9998C33.89 42.9004 34.9118 42.5811 35.3791 41.7598V41.7598C35.6022 41.3675 35.6466 40.8854 35.5557 40.4487C35.5064 40.2121 35.4046 39.9949 35.2393 39.8158Z" fill="black"/>
<path id="Path_2" d="M35.296 41.7074C35.2992 41.702 35.301 41.6986 35.3044 41.6928V41.6928C35.3016 41.6976 35.2988 41.7024 35.296 41.7074Z" fill="black"/>
<path id="Path_3" d="M28.6971 32.841C28.5386 33.0619 28.4392 33.3127 28.4118 33.5794C28.3844 33.8466 28.3998 34.1439 28.5061 34.3954C28.6074 34.6351 28.8195 34.8121 29.0384 34.9546C29.2841 35.1141 29.5543 35.2387 29.8295 35.3443C30.0603 35.433 30.32 35.5178 30.5999 35.5998V31.7998C29.8928 31.9439 29.1201 32.2514 28.6971 32.841Z" fill="black"/>
<path id="Path_4" d="M35.3159 41.6721C35.3059 41.6899 35.2951 41.7085 35.2845 41.7281V41.7281C35.2969 41.7053 35.3067 41.6885 35.3159 41.6721Z" fill="black"/>
<path id="Path_5" d="M35.2991 41.702C35.3017 41.6972 35.3021 41.6968 35.2991 41.702V41.702Z" fill="black"/>
<path id="Shape" fill-rule="evenodd" clip-rule="evenodd" d="M39.0018 8.16329C40.5028 8.46428 38.0638 15.3459 34.4136 18.4005C48.1726 24.0434 68.2663 58.5437 28.138 55.6251C-0.863232 53.5159 15.7607 24.4461 27.5879 18.6554C23.6236 16.0961 21.0897 10.2215 22.5655 8.60611C23.5899 7.48489 25.066 8.13161 26.6914 8.84373C27.9461 9.39346 29.2898 9.98216 30.5833 9.82658C31.3201 9.71778 32.3342 9.42991 33.4261 9.11996C35.4361 8.5494 37.7095 7.90405 39.0018 8.16329ZM36.2323 44.1803C37.1335 43.4845 37.7365 42.4596 37.8599 41.3263C37.953 40.4718 37.8122 39.5724 37.3837 38.8201L37.3889 38.8292C37.4696 38.97 37.5415 39.0956 37.3804 38.8137C37.2127 38.5206 37.294 38.6629 37.3775 38.8089C36.839 37.8717 35.904 37.2774 34.9173 36.8898C34.2645 36.6334 33.5825 36.4561 32.9011 36.2936V31.8416C33.4745 31.9429 34.0483 32.1242 34.5213 32.4722C34.7398 32.6327 34.9312 32.8275 35.0789 33.0547C35.1548 33.1716 35.2208 33.2953 35.2717 33.425C35.2975 33.4904 35.3165 33.5578 35.3355 33.6252C35.3538 33.6899 35.3721 33.7546 35.3964 33.8175C35.5624 34.2494 35.9827 34.5503 36.4465 34.5704C36.9186 34.5906 37.3673 34.3193 37.5673 33.8932C37.665 33.6853 37.6998 33.4504 37.6657 33.2231C37.6443 33.0807 37.5994 32.9402 37.5547 32.8038C37.5067 32.6575 37.4513 32.5139 37.3879 32.3737C37.1611 31.8709 36.8385 31.4099 36.4445 31.023C35.6127 30.2061 34.5002 29.7382 33.3628 29.5331C33.2097 29.5054 33.0558 29.4823 32.9015 29.4629V29.3677V28.1701C32.9015 27.7155 32.6289 27.2919 32.2143 27.1017C31.7942 26.9089 31.2859 26.9843 30.9397 27.2892C30.6879 27.511 30.541 27.8352 30.541 28.1701V29.3677V29.47C29.3827 29.6333 28.2279 30.0779 27.3585 30.8751C26.952 31.2479 26.6204 31.6977 26.39 32.1987C26.1441 32.7337 26.0321 33.3158 26.0365 33.903C26.0408 34.4814 26.1464 35.0637 26.4012 35.5863C26.6427 36.0816 27.0115 36.5 27.446 36.8367C28.3403 37.5293 29.458 37.8901 30.5409 38.1693V42.8216C29.9871 42.6668 29.4559 42.4066 29.0388 42.0063C28.8365 41.8121 28.6608 41.5883 28.5206 41.3455C28.4496 41.2223 28.3892 41.0928 28.3391 40.9596C28.3098 40.8817 28.2872 40.8022 28.2647 40.7227C28.2484 40.6653 28.2321 40.6079 28.2132 40.5511C28.0674 40.1111 27.6612 39.7908 27.1979 39.7498C26.7271 39.708 26.2659 39.9598 26.0471 40.3768C25.9407 40.5795 25.8954 40.8116 25.9188 41.0392C25.9323 41.1719 25.9711 41.3014 26.0093 41.4288L26.0118 41.4372C26.0548 41.5809 26.1039 41.7231 26.159 41.8627C26.3699 42.3968 26.6749 42.8916 27.049 43.3277C27.7999 44.2025 28.8279 44.7938 29.9362 45.0972C30.1357 45.1517 30.3376 45.1975 30.5409 45.236V46.6046C30.5409 47.0592 30.8134 47.4829 31.2281 47.673C31.6481 47.8658 32.1566 47.7905 32.5027 47.4855C32.7545 47.2637 32.9013 46.9396 32.9013 46.6046V45.3524C34.0872 45.2567 35.2807 44.915 36.2323 44.1803Z" fill="#CBCBCB"/>
<path id="Path_6" d="M35.3158 41.6723C35.3036 41.6941 35.293 41.7133 35.2846 41.7279C35.2918 41.7153 35.3026 41.6963 35.3158 41.6723Z" fill="black"/>
</g>
</g>
</g>
</svg>
