<svg width="32" height="32" viewBox="0 0 32 32" fill="none" xmlns="http://www.w3.org/2000/svg">
<path opacity="0.161575" fill-rule="evenodd" clip-rule="evenodd" d="M16 32C24.8366 32 32 24.8366 32 16C32 7.16344 24.8366 0 16 0C7.16344 0 0 7.16344 0 16C0 24.8366 7.16344 32 16 32Z" fill="#2B2F33"/>
<path fill-rule="evenodd" clip-rule="evenodd" d="M4 4H28V28H4V4Z" stroke="black" stroke-opacity="0.0117647" stroke-width="0"/>
<path fill-rule="evenodd" clip-rule="evenodd" d="M23 10.41L21.59 9L16 14.59L10.41 9L9 10.41L14.59 16L9 21.59L10.41 23L16 17.41L21.59 23L23 21.59L17.41 16L23 10.41Z" fill="black"/>
</svg>
