<svg width="64" height="64" viewBox="0 0 64 64" fill="none" xmlns="http://www.w3.org/2000/svg">
<g id="Group 11">
<mask id="mask0" mask-type="alpha" maskUnits="userSpaceOnUse" x="0" y="0" width="64" height="64">
<path id="Oval" fill-rule="evenodd" clip-rule="evenodd" d="M32 64C49.6731 64 64 49.6731 64 32C64 14.3269 49.6731 0 32 0C14.3269 0 0 14.3269 0 32C0 49.6731 14.3269 64 32 64Z" fill="white"/>
</mask>
<g mask="url(#mask0)">
<g id="heart">
<path id="Path" d="M15.6763 35.5938H13.1763C12.5285 35.5938 12.0044 36.1179 12.0044 36.7656V50.8281C12.0044 51.4759 12.5285 52 13.1763 52H15.6763C17.6149 52 19.1919 50.423 19.1919 48.4844V39.1094C19.1919 37.1708 17.6149 35.5938 15.6763 35.5938Z" fill="#235EB2"/>
<path id="Path_2" d="M51.6527 37.8669C51.5121 37.6326 51.3246 37.445 51.1137 37.281C50.2508 36.5261 48.797 36.5975 47.9497 37.5154L42.6293 43.6561L42.4653 43.8435C41.8091 44.57 40.8715 44.9686 39.8872 44.9686H30.7935C30.1371 44.9686 29.6216 44.4528 29.6216 43.7967C29.6216 43.1403 30.1371 42.6248 30.7935 42.6248H37.9419C39.231 42.6248 40.2856 41.5701 40.2856 40.2811V40.2576C40.2622 38.9686 39.231 37.9373 37.9419 37.9373H33.6997C32.9969 37.9373 32.2438 37.6793 31.6372 37.1638C28.7779 34.656 24.606 34.4919 21.5356 36.6248V51.0388C23.856 51.6717 26.2466 51.9998 28.6606 51.9998H39.1138C41.6918 51.9998 44.1294 50.781 45.6763 48.7185L51.3013 41.2185C52.1219 40.1412 52.1838 38.6639 51.6527 37.8669Z" fill="#235EB2"/>
<path id="Path_3" d="M43.4271 14.2652C42.1273 12.8045 40.3255 12 38.3536 12C36.1527 12 34.2448 13.0407 32.8363 15.0095C32.7306 15.1571 32.6318 15.3048 32.5392 15.4509C32.4467 15.3047 32.3479 15.1571 32.2423 15.0095C30.8338 13.0407 28.9259 12 26.7249 12C24.7531 12 22.9513 12.8045 21.6516 14.2652C20.4181 15.6514 19.7388 17.5046 19.7388 19.4834C19.7388 21.6338 20.5732 23.6181 22.3646 25.7283C23.9278 27.5693 26.1699 29.4617 28.766 31.653C29.7254 32.4627 30.7175 33.3001 31.7717 34.2138C31.992 34.4046 32.2656 34.5001 32.5392 34.5001C32.8128 34.5001 33.0865 34.4046 33.3067 34.2138C34.3608 33.3002 35.3528 32.463 36.3121 31.6534C37.9795 30.246 39.4194 29.0307 40.6689 27.8518C43.0949 25.5629 45.3398 22.9648 45.3398 19.4835C45.3398 17.5047 44.6605 15.6515 43.4271 14.2652Z" fill="#235EB2"/>
</g>
</g>
</g>
</svg>