<svg width="64" height="64" viewBox="0 0 64 64" fill="none" xmlns="http://www.w3.org/2000/svg">
<g id="Group 10">
<mask id="mask0" mask-type="alpha" maskUnits="userSpaceOnUse" x="0" y="0" width="64" height="64">
<path id="Oval" fill-rule="evenodd" clip-rule="evenodd" d="M32 64C49.6731 64 64 49.6731 64 32C64 14.3269 49.6731 0 32 0C14.3269 0 0 14.3269 0 32C0 49.6731 14.3269 64 32 64Z" fill="white"/>
</mask>
<g mask="url(#mask0)">
<g id="calendar">
<path id="Path" d="M50.6202 17.207C49.5272 17.207 49.7524 17.207 46.7148 17.207V21.1125C46.7148 23.266 44.963 25.0179 42.8094 25.0179C40.6558 25.0179 38.9039 23.266 38.9039 21.1125V17.207C36.04 17.207 27.8819 17.207 25.018 17.207V21.1125C25.018 23.266 23.2661 25.0179 21.1126 25.0179C18.9591 25.0179 17.2072 23.266 17.2072 21.1125V17.207C14.1697 17.207 14.3786 17.207 13.3018 17.207C12.5828 17.207 12 17.7899 12 18.5088V27.6215H51.922V18.5088C51.922 17.7899 51.3392 17.207 50.6202 17.207Z" fill="#CBCBCB"/>
<path id="Path_2" d="M42.8092 12C42.0902 12 41.5073 12.5828 41.5073 13.3018V21.1127C41.5073 21.8316 42.0902 22.4145 42.8092 22.4145C43.5281 22.4145 44.111 21.8317 44.111 21.1127V13.3018C44.111 12.5828 43.5281 12 42.8092 12Z" fill="#CBCBCB"/>
<path id="Path_3" d="M21.1129 12C20.394 12 19.811 12.5828 19.811 13.3018V21.1127C19.811 21.8316 20.3939 22.4145 21.1129 22.4145C21.8319 22.4145 22.4147 21.8317 22.4147 21.1127V13.3018C22.4146 12.5828 21.8318 12 21.1129 12Z" fill="#CBCBCB"/>
<path id="Shape" fill-rule="evenodd" clip-rule="evenodd" d="M12 30.2251V50.62C12 51.339 12.5828 51.9219 13.3018 51.9219H50.6203C51.3392 51.9219 51.9221 51.339 51.9221 50.62V30.2251H12ZM31.9524 42.3215C31.9524 43.0505 31.8367 43.6733 31.6061 44.1895C31.3751 44.7061 31.0621 45.1253 30.6674 45.4471C30.2725 45.7691 29.8077 46.0029 29.2732 46.1488C28.7384 46.2946 28.1735 46.3675 27.5782 46.3675C26.8248 46.3675 26.184 46.2642 25.6555 46.0578C25.127 45.8514 24.6954 45.587 24.3615 45.2649C24.0272 44.9431 23.7811 44.5846 23.6234 44.1895C23.4653 43.7948 23.3864 43.415 23.3864 43.0504C23.3864 42.6859 23.4713 42.4399 23.6416 42.3123C23.8115 42.1848 24.1032 42.121 24.5163 42.121C25.0022 42.121 25.3273 42.1879 25.4914 42.3215C25.6554 42.4554 25.7375 42.6677 25.7375 42.9594C25.7375 43.3726 25.9074 43.6975 26.2478 43.9344C26.5878 44.1714 27.0497 44.2899 27.6329 44.2899C28.3255 44.2899 28.8235 44.135 29.1274 43.8252C29.431 43.5153 29.5831 43.0142 29.5831 42.3215V41.9754C29.5831 41.6353 29.5344 41.3556 29.4373 41.137C29.3399 40.9182 29.2003 40.7423 29.0181 40.6085C28.8359 40.4749 28.6232 40.3807 28.3802 40.3259C28.137 40.2713 27.8699 40.244 27.5782 40.244C27.3109 40.244 27.1255 40.15 27.0224 39.9615C26.919 39.7732 26.8674 39.5577 26.8674 39.3145C26.8674 39.0838 26.919 38.871 27.0224 38.6765C27.1255 38.4823 27.3109 38.3849 27.5782 38.3849C27.8089 38.3849 28.0248 38.3667 28.2253 38.3303C28.4257 38.2939 28.6017 38.2118 28.7538 38.0843C28.9056 37.9566 29.0271 37.7744 29.1183 37.5375C29.2094 37.3007 29.255 36.9879 29.255 36.599C29.255 35.9916 29.112 35.5724 28.8267 35.3414C28.5411 35.1108 28.1492 34.9952 27.6511 34.9952C27.0557 34.9952 26.6365 35.1077 26.3936 35.3324C26.1504 35.5573 26.0291 35.8517 26.0291 36.2163C26.0291 36.4959 25.9499 36.7175 25.7921 36.8815C25.6341 37.0455 25.3365 37.1275 24.8991 37.1275C24.6317 37.1275 24.419 37.1092 24.2612 37.0728C24.1032 37.0364 23.9816 36.9789 23.8967 36.8996C23.8115 36.8207 23.7538 36.7174 23.7235 36.5898C23.693 36.4622 23.678 36.3014 23.678 36.1069C23.678 35.7789 23.7418 35.4297 23.8693 35.0589C23.9969 34.6884 24.2125 34.3453 24.5163 34.0292C24.8199 33.7134 25.23 33.4524 25.7465 33.2455C26.2628 33.0391 26.9038 32.9358 27.6692 32.9358C28.216 32.9358 28.7263 32.9936 29.2002 33.109C29.674 33.2246 30.0809 33.4097 30.4213 33.6648C30.7613 33.9199 31.0287 34.2543 31.2232 34.6673C31.4174 35.0805 31.5148 35.5908 31.5148 36.1982C31.5148 36.9272 31.3901 37.5623 31.1411 38.1028C30.892 38.6434 30.5425 39.0171 30.0932 39.2236C30.6277 39.4303 31.0711 39.7521 31.4236 40.1895C31.7759 40.627 31.9521 41.2223 31.9521 41.9756V42.3215H31.9524ZM38.4587 46.2582C38.7503 46.2582 39.0205 46.1944 39.2697 46.0668C39.5186 45.9392 39.6434 45.7541 39.6433 45.5109V33.6646C39.6433 33.4217 39.5276 33.2334 39.297 33.0996C39.066 32.9661 38.8291 32.8992 38.5862 32.8992C38.404 32.8992 38.2399 32.9601 38.0941 33.0814L35.9435 34.7216C35.7977 34.819 35.6853 34.9435 35.6064 35.0953C35.5273 35.2473 35.488 35.4083 35.488 35.5782C35.488 35.8214 35.5577 36.0401 35.6975 36.2344C35.8371 36.4289 36.0225 36.526 36.2534 36.526C36.3141 36.526 36.3838 36.514 36.463 36.4895C36.5419 36.4653 36.6179 36.4228 36.6908 36.3619L37.2741 35.7786V45.5109C37.2741 45.7541 37.3954 45.9392 37.6386 46.0668C37.8815 46.1944 38.1549 46.2582 38.4587 46.2582Z" fill="#CBCBCB"/>
</g>
</g>
</g>
</svg>