<?xml version="1.0" encoding="utf-8"?>
<!-- Generator: Adobe Illustrator 24.0.1, SVG Export Plug-In . SVG Version: 6.00 Build 0)  -->
<svg version="1.1" id="Calque_1" xmlns="http://www.w3.org/2000/svg" xmlns:xlink="http://www.w3.org/1999/xlink" x="0px" y="0px"
	 viewBox="0 0 20 24" style="enable-background:new 0 0 20 24;" xml:space="preserve">
<style type="text/css">
	.st0{opacity:0.4048;}
	.st1{filter:url(#Adobe_OpacityMaskFilter);}
	.st2{fill-rule:evenodd;clip-rule:evenodd;fill:#FFFFFF;}
	.st3{mask:url(#mask-2_1_);}
	.st4{fill:#235EB2;}
</style>
<title>Group 12</title>
<desc>Created with Sketch.</desc>
<g id="Interfaces">
	<g id="_x31_0-AGENDA" transform="translate(-41.000000, -820.000000)">
		<g id="Group-2" transform="translate(0.000000, 804.000000)">
			<g id="Group-3" transform="translate(16.000000, 12.000000)">
				<g id="Group-12" transform="translate(19.000000, 0.000000)">
					<g id="Oval" class="st0">
					</g>
					<defs>
						<filter id="Adobe_OpacityMaskFilter" filterUnits="userSpaceOnUse" x="6" y="4" width="19.9" height="23.9">
							<feColorMatrix  type="matrix" values="1 0 0 0 0  0 1 0 0 0  0 0 1 0 0  0 0 0 1 0"/>
						</filter>
					</defs>
					<mask maskUnits="userSpaceOnUse" x="6" y="4" width="19.9" height="23.9" id="mask-2_1_">
						<g class="st1">
							<circle id="path-1_1_" class="st2" cx="16" cy="16" r="16"/>
						</g>
					</mask>
					<g id="money-bag-with-dollar-symbol" class="st3">
						<g transform="translate(6.000000, 4.000000)">
							<path id="Path" class="st4" d="M11.6,15.9c-0.1-0.1-0.2-0.2-0.3-0.2c-0.3-0.1-0.5-0.2-0.8-0.3v2.1c0.4,0,1-0.2,1.2-0.6l0,0
								c0.1-0.2,0.1-0.4,0.1-0.7C11.8,16.1,11.7,16,11.6,15.9z"/>
							<path id="Path_1_" d="M11.6,16.9C11.6,16.9,11.7,16.8,11.6,16.9L11.6,16.9C11.7,16.8,11.6,16.9,11.6,16.9z"/>
							<path id="Path_2_" class="st4" d="M8.3,12.4c-0.1,0.1-0.1,0.2-0.1,0.4c0,0.1,0,0.3,0,0.4c0.1,0.1,0.2,0.2,0.3,0.3
								c0.1,0.1,0.3,0.1,0.4,0.2c0.1,0,0.2,0.1,0.4,0.1v-1.9C8.9,12,8.6,12.1,8.3,12.4z"/>
							<path id="Path_3_" d="M11.7,16.8C11.7,16.8,11.6,16.9,11.7,16.8L11.7,16.8C11.6,16.9,11.7,16.8,11.7,16.8z"/>
							<path id="Path_4_" d="M11.6,16.9C11.7,16.8,11.7,16.8,11.6,16.9L11.6,16.9z"/>
							<path id="Shape" class="st4" d="M11.2,5.2c1.8-1.5,3-5,2.3-5.1c-1-0.2-3.2,0.7-4.2,0.8c-1.5,0.2-3.1-1.6-4-0.6
								C4.5,1.1,5.8,4,7.8,5.3C1.9,8.2-6.4,22.8,8.1,23.8C28.1,25.3,18.1,8,11.2,5.2z M12.9,16.7c-0.1,0.6-0.4,1.1-0.8,1.4
								c-0.5,0.4-1.1,0.5-1.7,0.6v0.6c0,0.2-0.1,0.3-0.2,0.4c-0.2,0.2-0.4,0.2-0.6,0.1c-0.2-0.1-0.3-0.3-0.3-0.5v-0.7
								c-0.1,0-0.2,0-0.3-0.1c-0.6-0.2-1.1-0.4-1.4-0.9c-0.2-0.2-0.3-0.5-0.4-0.7c0-0.1-0.1-0.1-0.1-0.2c0-0.1,0-0.1,0-0.2
								c0-0.1,0-0.2,0.1-0.3c0.1-0.2,0.3-0.3,0.6-0.3c0.2,0,0.4,0.2,0.5,0.4c0,0.1,0,0.1,0.1,0.2c0,0.1,0.1,0.1,0.1,0.2
								c0.1,0.1,0.2,0.2,0.3,0.3c0.2,0.2,0.5,0.3,0.8,0.4v-2.3c-0.5-0.1-1.1-0.3-1.5-0.7c-0.2-0.2-0.4-0.4-0.5-0.6
								C7.1,13.5,7,13.2,7,13c0-0.3,0.1-0.6,0.2-0.9c0.1-0.3,0.3-0.5,0.5-0.7c0.4-0.4,1-0.6,1.6-0.7v-0.1v-0.6
								c0-0.2,0.1-0.3,0.2-0.4c0.2-0.2,0.4-0.2,0.6-0.1c0.2,0.1,0.3,0.3,0.3,0.5v0.6v0c0.1,0,0.2,0,0.2,0c0.6,0.1,1.1,0.3,1.5,0.7
								c0.2,0.2,0.4,0.4,0.5,0.7c0,0.1,0.1,0.1,0.1,0.2c0,0.1,0,0.1,0.1,0.2c0,0.1,0,0.2,0,0.3c-0.1,0.2-0.3,0.3-0.6,0.3
								c-0.2,0-0.4-0.2-0.5-0.4c0-0.1,0-0.1-0.1-0.2c0-0.1-0.1-0.1-0.1-0.2c-0.1-0.1-0.2-0.2-0.3-0.3c-0.2-0.2-0.5-0.3-0.8-0.3v2.2
								c0.3,0.1,0.7,0.2,1,0.3c0.5,0.2,1,0.5,1.2,1c0-0.1-0.1-0.1,0,0c0.1,0.1,0,0.1,0,0C12.9,15.8,13,16.2,12.9,16.7z"/>
							<path id="Path_5_" d="M11.7,16.8C11.7,16.8,11.6,16.9,11.7,16.8C11.6,16.9,11.7,16.8,11.7,16.8z"/>
						</g>
					</g>
				</g>
			</g>
		</g>
	</g>
</g>
</svg>
